<?xml version="1.0" encoding="iso-8859-1"?>
<!-- Generator: Adobe Illustrator 19.0.0, SVG Export Plug-In . SVG Version: 6.00 Build 0)  -->
<svg version="1.1" id="Capa_1" xmlns="http://www.w3.org/2000/svg" xmlns:xlink="http://www.w3.org/1999/xlink" x="0px" y="0px"
	 viewBox="0 0 512 512" style="enable-background:new 0 0 512 512;" xml:space="preserve">
<polygon style="fill:#808080;" points="396.258,289.237 343.532,489.166 425.736,489.166 425.736,289.237 "/>
<path style="fill:#999999;" d="M343.532,258.791c-22.535,0-42.195,12.25-52.725,30.446h-29.479v199.929h134.93V289.237
	C385.727,271.041,366.067,258.791,343.532,258.791z"/>
<path style="fill:#A45E43;" d="M223.271,129.395c-4.204,0-7.612,3.408-7.612,7.611v60.892c0,12.59-10.243,22.834-22.834,22.834
	h-45.669v15.223h45.669c20.985,0,38.057-17.073,38.057-38.057v-60.892C230.882,132.803,227.474,129.395,223.271,129.395z"/>
<path style="fill:#696969;" d="M124.321,279.086v209.665l25.242,8.414c3.987,1.329,6.139,5.641,4.814,9.627
	c-1.329,3.988-5.641,6.144-9.628,4.815l-30.446-10.149c-3.109-1.036-5.204-3.946-5.204-7.221V279.086H124.321z"/>
<path style="fill:#4F4F4F;" d="M185.213,279.086v209.665l25.242,8.414c3.987,1.329,6.139,5.641,4.814,9.627
	c-1.329,3.988-5.641,6.144-9.628,4.815l-30.446-10.149c-3.109-1.036-5.204-3.946-5.204-7.221V279.086H185.213z"/>
<path style="fill:#353535;" d="M147.156,0l15.223,81.189l30.446-35.52C192.825,20.447,172.378,0,147.156,0z"/>
<path style="fill:#4F4F4F;" d="M147.156,0c-25.222,0-45.669,20.447-45.669,45.669l60.892,35.52v-35.52
	C162.379,20.447,155.563,0,147.156,0z"/>
<path style="fill:#808080;" d="M162.379,45.669l-20.297,55.818l20.297,32.518c1.949-1.215,4.299-2.072,7.614-2.072
	c11.416,0,11.416,10.149,22.832,10.149V45.669H162.379z"/>
<path style="fill:#999999;" d="M101.487,45.669v96.412c11.418,0,11.418-10.149,22.837-10.149s11.418,10.149,22.837,10.149
	c8.102,0,10.457-5.108,15.219-8.076V45.669H101.487z"/>
<path style="fill:#353535;" d="M223.271,53.28H71.041c-4.204,0-7.611-3.408-7.611-7.611s3.408-7.611,7.611-7.611h152.23
	c4.204,0,7.611,3.408,7.611,7.611S227.474,53.28,223.271,53.28z"/>
<path style="fill:#4F4F4F;" d="M172.527,167.453h-30.446v121.784h50.743V187.75C192.825,176.54,183.737,167.453,172.527,167.453z"/>
<path style="fill:#696969;" d="M142.081,167.453h-20.297c-11.21,0-20.297,9.087-20.297,20.297v101.487h60.892V187.75
	C162.379,176.54,153.291,167.453,142.081,167.453z"/>
<path style="fill:#353535;" d="M192.825,258.791h-30.446l15.223,91.338h30.446v-51.083
	C208.048,283.608,202.292,269.523,192.825,258.791z"/>
<path style="fill:#4F4F4F;" d="M162.379,258.791h-60.892c-9.468,10.732-15.223,24.818-15.223,40.255v51.083h91.338v-51.083
	C177.602,283.608,171.846,269.523,162.379,258.791z"/>
<path style="fill:#C27749;" d="M162.379,327.294c-20.985,0-38.057-17.073-38.057-38.057v-91.338c0-4.204,3.408-7.611,7.611-7.611
	c4.204,0,7.611,3.408,7.611,7.611v91.338c0,12.59,10.243,22.835,22.834,22.835c4.204,0,7.611,3.408,7.611,7.611
	S166.582,327.294,162.379,327.294z"/>
<path style="fill:#CCCCCC;" d="M373.978,319.683c0-16.788-13.658-30.446-30.446-30.446c-16.788,0-30.446,13.658-30.446,30.446
	h-21.312v123.814H395.29V319.683H373.978z"/>
<polygon style="fill:#B3B3B3;" points="418.125,473.943 402.902,489.166 418.125,504.389 448.571,504.389 448.571,473.943 "/>
<rect x="238.494" y="473.943" style="fill:#CCCCCC;" width="179.631" height="30.446"/>
<path style="fill:#999999;" d="M364.844,357.74H322.22c-4.204,0-7.612-3.408-7.612-7.612s3.408-7.611,7.612-7.611h42.624
	c4.204,0,7.612,3.408,7.612,7.611S369.048,357.74,364.844,357.74z"/>
<g>
</g>
<g>
</g>
<g>
</g>
<g>
</g>
<g>
</g>
<g>
</g>
<g>
</g>
<g>
</g>
<g>
</g>
<g>
</g>
<g>
</g>
<g>
</g>
<g>
</g>
<g>
</g>
<g>
</g>
</svg>
